<svg xmlns="http://www.w3.org/2000/svg" xmlns:xlink="http://www.w3.org/1999/xlink" contentStyleType="text/css" data-diagram-type="STATE" height="608px" preserveAspectRatio="none" style="width:424px;height:608px;background:#FFFFFF;" version="1.1" viewBox="0 0 424 608" width="424px" zoomAndPan="magnify"><defs/><g><ellipse cx="220.5" cy="16" fill="#222222" rx="10" ry="10" style="stroke:#222222;stroke-width:1;"/><g id="NotStarted"><rect fill="#F1F1F1" height="50" rx="12.5" ry="12.5" style="stroke:#181818;stroke-width:0.5;" width="86.9238" x="177" y="87"/><line style="stroke:#181818;stroke-width:0.5;" x1="177" x2="263.9238" y1="114.6094" y2="114.6094"/><text fill="#000000" font-family="sans-serif" font-size="14" lengthAdjust="spacing" textLength="66.9238" x="187" y="106.5332">NotStarted</text></g><g id="InProgress"><rect fill="#F1F1F1" height="50" rx="12.5" ry="12.5" style="stroke:#181818;stroke-width:0.5;" width="87.6963" x="176.5" y="198"/><line style="stroke:#181818;stroke-width:0.5;" x1="176.5" x2="264.1963" y1="225.6094" y2="225.6094"/><text fill="#000000" font-family="sans-serif" font-size="14" lengthAdjust="spacing" textLength="67.6963" x="186.5" y="217.5332">InProgress</text></g><g id="Stalemate"><rect fill="#F1F1F1" height="50" rx="12.5" ry="12.5" style="stroke:#181818;stroke-width:0.5;" width="83.0342" x="7" y="389"/><line style="stroke:#181818;stroke-width:0.5;" x1="7" x2="90.0342" y1="416.6094" y2="416.6094"/><text fill="#000000" font-family="sans-serif" font-size="14" lengthAdjust="spacing" textLength="63.0342" x="17" y="408.5332">Stalemate</text></g><g id="Resigned"><rect fill="#F1F1F1" height="50" rx="12.5" ry="12.5" style="stroke:#181818;stroke-width:0.5;" width="79.1514" x="99" y="389"/><line style="stroke:#181818;stroke-width:0.5;" x1="99" x2="178.1514" y1="416.6094" y2="416.6094"/><text fill="#000000" font-family="sans-serif" font-size="14" lengthAdjust="spacing" textLength="59.1514" x="109" y="408.5332">Resigned</text></g><g id="InsufficientMaterial"><rect fill="#F1F1F1" height="50" rx="12.5" ry="12.5" style="stroke:#181818;stroke-width:0.5;" width="136.7168" x="155" y="469"/><line style="stroke:#181818;stroke-width:0.5;" x1="155" x2="291.7168" y1="496.6094" y2="496.6094"/><text fill="#000000" font-family="sans-serif" font-size="14" lengthAdjust="spacing" textLength="116.7168" x="165" y="488.5332">InsufficientMaterial</text></g><g id="Check"><rect fill="#F1F1F1" height="50" rx="12.5" ry="12.5" style="stroke:#181818;stroke-width:0.5;" width="59.6826" x="273.5" y="309"/><line style="stroke:#181818;stroke-width:0.5;" x1="273.5" x2="333.1826" y1="336.6094" y2="336.6094"/><text fill="#000000" font-family="sans-serif" font-size="14" lengthAdjust="spacing" textLength="39.6826" x="283.5" y="328.5332">Check</text></g><g id="Checkmate"><rect fill="#F1F1F1" height="50" rx="12.5" ry="12.5" style="stroke:#181818;stroke-width:0.5;" width="90.8066" x="327" y="469"/><line style="stroke:#181818;stroke-width:0.5;" x1="327" x2="417.8066" y1="496.6094" y2="496.6094"/><text fill="#000000" font-family="sans-serif" font-size="14" lengthAdjust="spacing" textLength="70.8066" x="337" y="488.5332">Checkmate</text></g><ellipse cx="141.5" cy="591" fill="none" rx="11" ry="11" style="stroke:#222222;stroke-width:1;"/><ellipse cx="141.5" cy="591" fill="#222222" rx="6" ry="6" style="stroke:#222222;stroke-width:1;"/><!--link *start* to NotStarted--><g class="link" data-entity-1=".start." data-entity-2="NotStarted" data-source-line="2" data-uid="lnk4" id="link_.start._NotStarted"><path d="M220.5,26.01 C220.5,39.89 220.5,60.97 220.5,80.84" fill="none" id="*start*-to-NotStarted" style="stroke:#181818;stroke-width:1;"/><polygon fill="#181818" points="220.5,86.84,224.5,77.84,220.5,81.84,216.5,77.84,220.5,86.84" style="stroke:#181818;stroke-width:1;"/></g><!--link NotStarted to InProgress--><g class="link" data-entity-1="NotStarted" data-entity-2="InProgress" data-source-line="4" data-uid="lnk6" id="link_NotStarted_InProgress"><path d="M220.5,137.19 C220.5,155.25 220.5,173.83 220.5,191.88" fill="none" id="NotStarted-to-InProgress" style="stroke:#181818;stroke-width:1;"/><polygon fill="#181818" points="220.5,197.88,224.5,188.88,220.5,192.88,216.5,188.88,220.5,197.88" style="stroke:#181818;stroke-width:1;"/></g><!--link InProgress to Stalemate--><g class="link" data-entity-1="InProgress" data-entity-2="Stalemate" data-source-line="5" data-uid="lnk8" id="link_InProgress_Stalemate"><path d="M198.37,248.32 C165.34,284.61 107.569,348.103 74.589,384.333" fill="none" id="InProgress-to-Stalemate" style="stroke:#181818;stroke-width:1;"/><polygon fill="#181818" points="70.55,388.77,79.5664,384.8072,73.9158,385.0725,73.6505,379.4219,70.55,388.77" style="stroke:#181818;stroke-width:1;"/></g><!--link InProgress to Resigned--><g class="link" data-entity-1="InProgress" data-entity-2="Resigned" data-source-line="6" data-uid="lnk10" id="link_InProgress_Resigned"><path d="M208.56,248.06 C204.04,257.36 198.92,268.12 194.5,278 C177.29,316.44 161.0737,356.2173 150.2437,383.3573" fill="none" id="InProgress-to-Resigned" style="stroke:#181818;stroke-width:1;"/><polygon fill="#181818" points="148.02,388.93,155.0707,382.0534,149.8731,384.2861,147.6405,379.0885,148.02,388.93" style="stroke:#181818;stroke-width:1;"/></g><!--link InProgress to InsufficientMaterial--><g class="link" data-entity-1="InProgress" data-entity-2="InsufficientMaterial" data-source-line="7" data-uid="lnk12" id="link_InProgress_InsufficientMaterial"><path d="M220.77,248.35 C221.34,299.56 222.5929,411.9104 223.1629,462.9004" fill="none" id="InProgress-to-InsufficientMaterial" style="stroke:#181818;stroke-width:1;"/><polygon fill="#181818" points="223.23,468.9,227.1291,459.8559,223.1741,463.9003,219.1296,459.9453,223.23,468.9" style="stroke:#181818;stroke-width:1;"/></g><!--link InProgress to InProgress--><g class="link" data-entity-1="InProgress" data-entity-2="InProgress" data-source-line="8" data-uid="lnk13" id="link_InProgress_InProgress"><path d="M264.77,212.98 C283.52,212.22 299.5,215.56 299.5,223 C299.5,230.44 289.5151,234.023 270.7651,233.263" fill="none" id="InProgress-to-InProgress" style="stroke:#181818;stroke-width:1;"/><polygon fill="#181818" points="264.77,233.02,273.6006,237.3812,269.7659,233.2225,273.9246,229.3878,264.77,233.02" style="stroke:#181818;stroke-width:1;"/><text fill="#000000" font-family="sans-serif" font-size="13" lengthAdjust="spacing" textLength="78.7617" x="305.5" y="228.4951">move refused</text></g><!--link InProgress to Check--><g class="link" data-entity-1="InProgress" data-entity-2="Check" data-source-line="9" data-uid="lnk15" id="link_InProgress_Check"><path d="M228.12,248.19 C239.27,266.25 253.9619,286.3831 270.3119,304.4331" fill="none" id="InProgress-to-Check" style="stroke:#181818;stroke-width:1;"/><polygon fill="#181818" points="274.34,308.88,271.2625,299.5243,270.9833,305.1743,265.3333,304.8951,274.34,308.88" style="stroke:#181818;stroke-width:1;"/></g><!--link Check to InProgress--><g class="link" data-entity-1="Check" data-entity-2="InProgress" data-source-line="11" data-uid="lnk18" id="link_Check_InProgress"><path d="M296.56,308.88 C285.58,290.83 270.907,270.6796 254.407,252.6196" fill="none" id="Check-to-InProgress" style="stroke:#181818;stroke-width:1;"/><polygon fill="#181818" points="250.36,248.19,253.4774,257.5325,253.7325,251.8814,259.3836,252.1364,250.36,248.19" style="stroke:#181818;stroke-width:1;"/></g><!--link Check to Checkmate--><g class="link" data-entity-1="Check" data-entity-2="Checkmate" data-source-line="10" data-uid="lnk17" id="link_Check_Checkmate"><path d="M314.13,359.34 C327.13,389.12 346.6083,433.7217 359.5683,463.3917" fill="none" id="Check-to-Checkmate" style="stroke:#181818;stroke-width:1;"/><polygon fill="#181818" points="361.97,468.89,362.033,459.0413,359.9686,464.308,354.7019,462.2436,361.97,468.89" style="stroke:#181818;stroke-width:1;"/></g><!--link Resigned to *end*--><g class="link" data-entity-1="Resigned" data-entity-2=".end." data-source-line="15" data-uid="lnk20" id="link_Resigned_.end."><path d="M137.96,439.19 C137.77,448.51 137.59,459.25 137.5,469 C137.29,491.22 136.87,496.79 137.5,519 C138.11,540.72 139.3441,560.1451 140.3241,573.9151" fill="none" id="Resigned-to-*end*" style="stroke:#181818;stroke-width:1;"/><polygon fill="#181818" points="140.75,579.9,144.101,570.6387,140.3951,574.9126,136.1212,571.2067,140.75,579.9" style="stroke:#181818;stroke-width:1;"/></g><!--link InsufficientMaterial to *end*--><g class="link" data-entity-1="InsufficientMaterial" data-entity-2=".end." data-source-line="16" data-uid="lnk21" id="link_InsufficientMaterial_.end."><path d="M202.38,519.46 C184.54,540.14 163.9907,563.9482 152.2507,577.5482" fill="none" id="InsufficientMaterial-to-*end*" style="stroke:#181818;stroke-width:1;"/><polygon fill="#181818" points="148.33,582.09,157.2389,577.891,151.5972,578.3051,151.1831,572.6635,148.33,582.09" style="stroke:#181818;stroke-width:1;"/></g><!--link Checkmate to *end*--><g class="link" data-entity-1="Checkmate" data-entity-2=".end." data-source-line="17" data-uid="lnk22" id="link_Checkmate_.end."><path d="M326.86,513.77 C271.38,536.59 186.9788,571.2974 157.0788,583.5974" fill="none" id="Checkmate-to-*end*" style="stroke:#181818;stroke-width:1;"/><polygon fill="#181818" points="151.53,585.88,161.375,586.1553,156.154,583.9778,158.3315,578.7568,151.53,585.88" style="stroke:#181818;stroke-width:1;"/></g><!--link Stalemate to *end*--><g class="link" data-entity-1="Stalemate" data-entity-2=".end." data-source-line="18" data-uid="lnk23" id="link_Stalemate_.end."><path d="M61.43,439.33 C82.39,478.78 120.0243,549.5917 133.8843,575.6717" fill="none" id="Stalemate-to-*end*" style="stroke:#181818;stroke-width:1;"/><polygon fill="#181818" points="136.7,580.97,136.0086,571.1454,134.3536,576.5548,128.9442,574.8997,136.7,580.97" style="stroke:#181818;stroke-width:1;"/></g><!--SRC=[YzQALT3LjLFmooy9BaaiAabDuU92i44odda1HVdfHQd5nLm89aW2g2OdDJUn91LDF2YrE3Cz3sWGgh1dNd5fMbfcScPgNealK5THPc8EXX8OpqeXDxyiLQ4eDQsq6CCavupKv6mkC0ddWjq15q9oCn3070IIYTQAvSBc4fWSt32O0DoNC040]--></g></svg>